<svg xmlns:xlink="http://www.w3.org/1999/xlink" preserveAspectRatio="xMinYMin meet" id="b" data-name="Laag 2" xmlns="http://www.w3.org/2000/svg" viewBox="0 0 212.8 38.87" width="213"  height="39" ><g id="c" data-name="b" fill="#EB4628"><path d="M65.74 8.99H49.87v7.64h10.77l5.1-7.64zM3.81 35.09h3.83V8.99H0v22.29c0 2.1 1.7 3.81 3.81 3.81zM0 6.07h7.64V3.81C7.64 1.71 5.94 0 3.83 0H0v6.07zm40 0h7.64V3.81c0-2.1-1.7-3.81-3.81-3.81H40v6.07zm45.24 21.38h-5.23l-5.1 7.64h13.03v-4.93c0-1.49-1.21-2.71-2.71-2.71zm-21.01 7.64l5.1-7.64-5.1 7.64zm1.42-7.64l-5.1 7.64h2.13l5.1-7.64h-2.13zM80.1 8.99h-2.13l-5.1 7.64H75l5.1-7.64zm-3.68 0l-5.1 7.64 5.1-7.64z" fill="#EB4628"></path><path d="M49.87 35.09H59l17.42-26.1h-9.14l-17.41 26.1zm36.86-26.1h-5.09l-17.42 26.1h9.13l15.17-22.73c.96-1.44-.07-3.37-1.8-3.37zm-42.92 26.1h3.83V8.99H40v22.29c0 2.1 1.7 3.81 3.81 3.81zM24.18 8.99c-1.98 0-3.85.44-5.53 1.22V3.25A3.256 3.256 0 0015.4 0h-4.39v35.09h4.54l1.32-1.97c2.09 1.4 4.61 2.22 7.31 2.22 7.27 0 13.17-5.9 13.17-13.17S31.45 9 24.18 9zm0 18.7c-3.05 0-5.53-2.48-5.53-5.53s2.48-5.53 5.53-5.53 5.53 2.48 5.53 5.53-2.48 5.53-5.53 5.53zm81.03-2.22c-1.31 0-2.34.44-3.08 1.33-.77.89-1.15 2.08-1.15 3.59s.38 2.67 1.15 3.57c.75.9 1.78 1.35 3.08 1.35s2.28-.51 2.97-1.53v1.31h2.22V22.12h-2.29v4.79c-.67-.96-1.63-1.44-2.9-1.44zm-1.23 2.71c.43-.55 1.02-.82 1.76-.82s1.36.26 1.79.78c.42.52.64 1.27.64 2.24s-.21 1.72-.64 2.24c-.44.52-1.03.78-1.79.78s-1.34-.25-1.77-.75-.64-1.23-.64-2.2.22-1.73.65-2.28zm10.37-5.86h-2.26v2.15h2.26v-2.15zm.02 3.37h-2.29v9.4h2.29v-9.4zm5.46-.22c-1.27 0-2.29.44-3.06 1.31-.78.86-1.16 2.02-1.16 3.48s.39 2.6 1.16 3.46c.78.89 1.8 1.33 3.08 1.33s2.2-.47 2.88-1.4v1.18c0 .74-.2 1.3-.59 1.69-.39.39-.97.58-1.72.58-1.29 0-1.98-.5-2.09-1.51h-2.26c.07 1.02.48 1.82 1.23 2.4s1.78.87 3.09.87c1.48 0 2.62-.36 3.43-1.09.81-.73 1.21-1.73 1.21-3v-9.09h-2.22v1.29c-.66-1.01-1.65-1.51-2.97-1.51zm-1.23 6.92c-.43-.51-.65-1.21-.65-2.11s.22-1.62.65-2.14c.43-.52 1.02-.77 1.76-.77s1.36.25 1.79.77c.42.51.64 1.22.64 2.13s-.21 1.62-.64 2.13c-.43.51-1.02.77-1.79.77s-1.33-.25-1.76-.77zm10.37-10.07h-2.26v2.15h2.26v-2.15zm.02 3.37h-2.29v9.4h2.29v-9.4zm4.57 0v-2.73h-2.28v2.73h-1.46v1.75h1.46v5.32c0 .84.23 1.45.7 1.83s1.21.57 2.23.57c.3 0 .7-.02 1.2-.07v-1.75h-.78c-.39 0-.66-.06-.83-.18-.16-.12-.25-.33-.25-.64v-5.08h1.86v-1.75h-1.86zm11.11 7.61v-5.01c0-1.88-1.3-2.82-3.91-2.82s-4.09 1.07-4.22 3.2h2.26c.05-.55.22-.93.51-1.16.29-.22.77-.34 1.44-.34.62 0 1.06.09 1.32.28s.39.48.39.88c0 .33-.1.57-.31.74s-.55.28-1.02.34l-1.42.13c-2.4.24-3.61 1.22-3.61 2.93 0 .89.31 1.58.92 2.08.61.5 1.44.75 2.47.75 1.38 0 2.39-.46 3.02-1.37.06.57.14.95.25 1.15h2.29c-.25-.36-.38-.96-.38-1.79zm-5.82.03c-.27-.22-.41-.54-.41-.94s.13-.71.39-.92c.26-.21.69-.36 1.3-.43l1.24-.15c.5-.06.86-.19 1.07-.38v.86c0 .74-.22 1.31-.67 1.7-.45.39-1.03.59-1.75.59-.51 0-.9-.11-1.17-.34zm9.72-11.21h-2.29v12.97h2.29V22.12zm13.86 11.18v-5.01c0-1.88-1.31-2.82-3.92-2.82s-4.09 1.07-4.22 3.2h2.26c.05-.55.22-.93.51-1.16.29-.22.77-.34 1.44-.34.62 0 1.06.09 1.32.28s.39.48.39.88c0 .33-.1.57-.31.74s-.55.28-1.02.34l-1.42.13c-2.4.24-3.61 1.22-3.61 2.93 0 .89.31 1.58.92 2.08.61.5 1.44.75 2.47.75 1.38 0 2.39-.46 3.02-1.37.06.57.15.95.25 1.15h2.29c-.25-.36-.38-.96-.38-1.79zm-5.82.03c-.27-.22-.41-.54-.41-.94s.13-.71.39-.92c.26-.21.69-.36 1.3-.43l1.24-.15c.5-.06.86-.19 1.07-.38v.86c0 .74-.22 1.31-.67 1.7-.45.39-1.03.59-1.75.59-.51 0-.9-.11-1.18-.34zm11.17-7.86c-1.27 0-2.29.44-3.06 1.31-.78.86-1.17 2.02-1.17 3.48s.39 2.6 1.17 3.46c.78.89 1.8 1.33 3.08 1.33s2.2-.47 2.88-1.4v1.18c0 .74-.2 1.3-.59 1.69-.39.39-.97.58-1.72.58-1.29 0-1.98-.5-2.09-1.51h-2.26c.07 1.02.48 1.82 1.23 2.4.75.58 1.78.87 3.09.87 1.48 0 2.62-.36 3.43-1.09.81-.73 1.21-1.73 1.21-3v-9.09h-2.22v1.29c-.66-1.01-1.64-1.51-2.97-1.51zm-1.23 6.92c-.43-.51-.65-1.21-.65-2.11s.22-1.62.65-2.14c.43-.52 1.02-.77 1.76-.77s1.36.25 1.78.77c.43.51.64 1.22.64 2.13s-.21 1.62-.64 2.13c-.42.51-1.02.77-1.78.77s-1.33-.25-1.76-.77zm15.68-5.52c-.84-.93-1.97-1.4-3.39-1.4s-2.51.45-3.37 1.35c-.85.9-1.28 2.09-1.28 3.57s.43 2.67 1.29 3.57c.86.9 1.99 1.35 3.39 1.35 1.12 0 2.06-.28 2.84-.85s1.29-1.33 1.53-2.29h-2.2c-.39.9-1.1 1.35-2.15 1.35-.7 0-1.27-.2-1.68-.61-.42-.41-.67-1.01-.75-1.81h7.03v-.55c0-1.52-.42-2.74-1.26-3.68zm-1.8.98c.41.4.67.95.76 1.64h-4.72c.22-1.49 1-2.24 2.35-2.24.66 0 1.19.2 1.6.6zm6.51-.82v-1.35h-2.22v9.4h2.29v-5.26c0-.74.2-1.32.61-1.74.41-.42.9-.63 1.48-.63 1.18 0 1.77.6 1.77 1.79v5.85h2.29v-6.23c0-1.08-.3-1.91-.88-2.5s-1.39-.88-2.41-.88c-1.24 0-2.22.52-2.93 1.57zm15.1 7.26c.8-.67 1.26-1.57 1.38-2.7h-2.29c-.08.58-.32 1.03-.7 1.34-.38.31-.85.46-1.41.46-.71 0-1.26-.26-1.68-.77-.41-.52-.62-1.26-.62-2.23s.2-1.71.61-2.23.97-.77 1.68-.77c.55 0 1 .14 1.37.44.36.29.6.71.71 1.26h2.3c-.13-1.1-.59-1.98-1.37-2.63-.78-.65-1.78-.97-3-.97-1.41 0-2.53.44-3.37 1.33-.85.89-1.27 2.08-1.27 3.59s.42 2.68 1.27 3.57c.86.9 1.98 1.35 3.37 1.35 1.21 0 2.22-.34 3.02-1.01zm6.07-1.01a91.29 91.29 0 00-1.49-5.24l-.77-2.35h-2.48l2.73 7.72c.29.81.44 1.44.44 1.89s-.13.81-.4 1.09-.65.42-1.15.42h-.87v1.8c.29.04.62.05 1 .05 1.13 0 1.99-.21 2.59-.62.58-.4 1.07-1.13 1.46-2.2l3.62-10.16h-2.4l-.77 2.37c-.64 2.11-1.15 3.85-1.51 5.23zM108.65 17.6c.8-.67 1.26-1.57 1.38-2.7h-2.29c-.08.58-.32 1.03-.7 1.34s-.85.46-1.41.46c-.7 0-1.26-.26-1.68-.77-.41-.52-.62-1.26-.62-2.23s.2-1.71.61-2.23.97-.77 1.68-.77c.55 0 1 .15 1.37.44.36.29.6.71.71 1.26h2.29c-.13-1.1-.59-1.98-1.37-2.63s-1.78-.97-3-.97c-1.41 0-2.53.44-3.37 1.33-.85.89-1.27 2.08-1.27 3.59s.42 2.68 1.27 3.57c.86.9 1.98 1.35 3.37 1.35 1.21 0 2.22-.34 3.02-1.01zm4.73-6.93V8.99h-2.22v9.4h2.29v-4.77c0-.86.23-1.51.7-1.96s1.14-.66 2.01-.66h.58V8.89c-.17-.02-.36-.04-.56-.04-1.35 0-2.28.61-2.8 1.82zm11.87-.49c-.84-.93-1.97-1.4-3.39-1.4s-2.51.45-3.37 1.35c-.85.9-1.27 2.09-1.27 3.57s.43 2.67 1.29 3.57c.86.9 1.99 1.35 3.39 1.35 1.12 0 2.06-.28 2.84-.85.78-.56 1.29-1.33 1.53-2.29h-2.2c-.39.9-1.1 1.35-2.15 1.35-.7 0-1.27-.2-1.68-.61s-.67-1.01-.76-1.81h7.03v-.55c0-1.52-.42-2.74-1.26-3.68zm-1.8.98c.41.4.67.95.77 1.64h-4.72c.22-1.49 1-2.24 2.35-2.24.66 0 1.19.2 1.6.6zm12.3 5.44v-5.01c0-1.88-1.31-2.82-3.92-2.82s-4.09 1.07-4.22 3.2h2.26c.05-.55.22-.93.51-1.16.29-.22.77-.34 1.44-.34.62 0 1.06.09 1.32.28.26.19.39.48.39.88 0 .33-.1.57-.31.74s-.55.28-1.02.34l-1.42.13c-2.4.24-3.61 1.22-3.61 2.93 0 .89.31 1.58.92 2.08s1.44.75 2.47.75c1.38 0 2.39-.46 3.02-1.37.06.57.15.95.25 1.15h2.3c-.26-.36-.38-.96-.38-1.79zm-5.82.03c-.27-.22-.41-.54-.41-.94s.13-.71.39-.92c.26-.21.69-.36 1.3-.43l1.24-.15c.5-.06.86-.19 1.07-.38v.86c0 .74-.22 1.31-.67 1.7s-1.03.59-1.75.59c-.51 0-.9-.11-1.18-.34zm10.31-7.64V6.26h-2.28v2.73h-1.46v1.75h1.46v5.32c0 .84.23 1.45.7 1.83.47.38 1.21.57 2.23.57.3 0 .71-.02 1.2-.07v-1.75h-.78c-.39 0-.66-.06-.83-.18-.16-.12-.25-.33-.25-.64v-5.08h1.86V8.99h-1.86zm5.23-3.37h-2.26v2.15h2.26V5.62zm.02 3.37h-2.29v9.4h2.29v-9.4zm5.6 7.32c-.56-1.87-1.05-3.47-1.48-4.79l-.91-2.53h-2.46l3.48 9.4h2.64l3.5-9.4h-2.39l-.91 2.51c-.54 1.7-1.03 3.3-1.48 4.81zm12.73-6.14c-.84-.93-1.97-1.4-3.39-1.4s-2.51.45-3.37 1.35c-.85.9-1.27 2.09-1.27 3.57s.43 2.67 1.29 3.57c.86.9 1.99 1.35 3.39 1.35 1.12 0 2.06-.28 2.84-.85.78-.56 1.29-1.33 1.53-2.29h-2.2c-.39.9-1.1 1.35-2.15 1.35-.71 0-1.27-.2-1.68-.61-.42-.41-.67-1.01-.76-1.81h7.03v-.55c0-1.52-.42-2.74-1.26-3.68zm-1.8.98c.41.4.67.95.77 1.64h-4.72c.22-1.49 1-2.24 2.35-2.24.66 0 1.19.2 1.6.6zm16.53 5.44v-5.01c0-1.88-1.3-2.82-3.91-2.82s-4.09 1.07-4.22 3.2h2.26c.05-.55.22-.93.51-1.16.29-.22.77-.34 1.44-.34.62 0 1.06.09 1.32.28s.39.48.39.88c0 .33-.1.57-.31.74s-.55.28-1.02.34l-1.42.13c-2.4.24-3.61 1.22-3.61 2.93 0 .89.31 1.58.92 2.08.61.5 1.44.75 2.47.75 1.38 0 2.39-.46 3.02-1.37.06.57.14.95.25 1.15h2.29c-.25-.36-.38-.96-.38-1.79zm-5.82.03c-.27-.22-.41-.54-.41-.94s.13-.71.39-.92c.26-.21.69-.36 1.3-.43l1.24-.15c.5-.06.86-.19 1.07-.38v.86c0 .74-.22 1.31-.67 1.7-.45.39-1.03.59-1.75.59-.51 0-.9-.11-1.17-.34zm9.66-6.29V8.98h-2.22v9.4h2.29v-5.26c0-.74.2-1.32.61-1.74.41-.42.9-.63 1.48-.63 1.18 0 1.77.6 1.77 1.79v5.85h2.29v-6.23c0-1.08-.3-1.91-.88-2.5-.59-.59-1.39-.88-2.41-.88-1.24 0-2.22.52-2.93 1.57zm11.69-1.57c-1.31 0-2.34.44-3.08 1.33-.76.89-1.15 2.08-1.15 3.59s.38 2.67 1.15 3.57c.75.9 1.78 1.35 3.08 1.35s2.28-.51 2.97-1.53v1.31h2.22V5.42h-2.3v4.79c-.67-.96-1.63-1.44-2.9-1.44zm-1.23 2.71c.43-.55 1.02-.82 1.76-.82s1.36.26 1.78.78c.43.52.64 1.27.64 2.24s-.21 1.72-.64 2.24c-.44.52-1.03.78-1.78.78s-1.34-.25-1.77-.75c-.43-.5-.64-1.23-.64-2.2s.22-1.73.65-2.28z" fill="#EB4628"></path></g></svg>